<?xml version="1.0" encoding="UTF-8"?><svg id="Layer_1" xmlns="http://www.w3.org/2000/svg" viewBox="0 0 400 200"><defs><style>.cls-1{fill:#fff;}</style></defs><path class="cls-1" d="M242.8593,120.2414c-.8593-.0291-1.5323-.7493-1.5032-1.6086v-.0018c.0472-.549,.3192-1.0541,.7515-1.3957-.1074,0,46.4888-25.2306,46.4888-25.2306,17.31-9.4133,23.7116-31.0768,14.2983-48.3868-.0063-.0115-.0125-.023-.0188-.0345-9.4303-17.2452-31.024-23.6273-48.314-14.2795l-73.0078,39.5101,28.1295-43.6973-35.9671,.1074-80.9528,125.1869h35.8597l32.6388-50.3539-.2147,50.4613h31.7799l-.1074-50.9981c-.0082-1.1824,.6586-2.266,1.7178-2.7915l74.5109-40.4764c2.5794-1.3934,5.8-.4321,7.1934,2.1473s.4321,5.8-2.1473,7.1934l-60.983,33.1756c-5.4648,3.2314-8.8134,9.1118-8.8039,15.4605l.1074,36.3965h51.857l19.433-30.1694-32.7462-.2147,.0002-.0002Zm-146.6598,49.8171c.3584,.7236,1.033,1.2394,1.8252,1.3957,.5831,.2199,1.2021,.3291,1.8252,.3221,.3221,0,1.9326,0,1.9326-.9663,0-.1074,0-.5368-.7516-.8589-1.1307-.3128-2.2776-.5637-3.4357-.7515-1.181-.3221-3.543-1.0736-3.543-3.8651,.0028-.5874,.1119-1.1694,.3221-1.7178,.8589-1.9326,3.1136-2.6841,5.4756-2.6841,1.3722-.0193,2.7308,.2744,3.9725,.8589,.7403,.3634,1.3981,.875,1.9326,1.5031l-2.5767,2.1473c-.2741-.3361-.6004-.6261-.9663-.8589-.7825-.3313-1.62-.5133-2.4694-.5368-.7516,0-1.5031,.2147-1.5031,.8589s.6442,.7515,1.8252,.9663c2.8988,.5368,5.7977,1.0736,5.7977,4.2946,.0341,1.1214-.3927,2.2079-1.181,3.0062-1.6105,1.7178-4.2946,1.7178-5.0461,1.7178-1.0184,.0162-2.033-.1288-3.0062-.4295-1.4406-.4306-2.7146-1.2924-3.6504-2.4694l3.2209-1.9326h-.0001Zm12.669-8.5892h4.4019l3.0062,4.9388c.6007,1.0405,1.1385,2.1161,1.6105,3.2209-.1074-1.2884-.1074-1.6105-.2147-3.0062v-5.1535h3.8651v13.0985h-4.5093l-2.6841-4.5093c-.7516-1.2884-.9663-1.7178-1.8252-3.4357,.0894,.8917,.1252,1.7881,.1074,2.6841v5.3682h-3.7578v-13.2058Zm19.433,6.5492c0,2.2547,.9663,3.6504,2.8988,3.6504,1.7178,0,2.8988-1.2884,2.8988-3.7578-.0118-.5785-.0838-1.1542-.2147-1.7178-.3451-1.1227-1.4031-1.8722-2.5767-1.8252-1.6105-.1074-3.0062,.9663-3.0062,3.6504m9.8775-.1074c0,3.3283-1.9326,7.0861-7.0861,7.0861-5.3682,0-6.9787-3.9725-6.9787-6.9787-.22-3.6935,2.5958-6.866,6.2893-7.0861,.2653-.0158,.5314-.0158,.7967,0,3.6718-.1824,6.7963,2.6463,6.9787,6.3181,.0109,.22,.0109,.4405,0,.6606m1.3957-6.4419h4.0798l1.2884,5.6903c.2671,1.1297,.4466,2.2783,.5368,3.4357,.2147-1.5031,.3221-1.8252,.6442-3.4357l1.3957-5.6903h3.543l1.3957,5.6903c.2989,1.1278,.5143,2.2762,.6442,3.4357,.2147-1.5031,.2147-1.8252,.5368-3.3283l1.2884-5.7977h4.0798l-3.2209,13.0985h-4.4019l-1.181-4.724c-.4295-1.8252-.5368-2.2547-.8589-4.0799-.2147,1.6105-.3221,2.0399-.6442,3.6504l-1.2884,5.1535h-4.5093l-3.3283-13.0985h0Zm26.1969,2.7915v2.2547h2.2547c.4295,0,1.3957,0,1.3957-1.0736s-.8589-1.0736-1.2884-1.181h-2.362Zm-.1074,4.9387v2.5767h2.5767c.4083,.0538,.8151-.1089,1.0736-.4295,.2147-.2337,.3301-.5417,.3221-.8589-.0039-.7234-.5936-1.3066-1.317-1.3027-.0623,.0003-.1245,.0051-.1861,.0143h-2.4693Zm-4.0799-7.7301h7.7302c1.2058-.08,2.3965,.3041,3.3283,1.0736,.6066,.5869,.9212,1.4129,.8589,2.2547,.0187,.8558-.3336,1.678-.9663,2.2547-.3124,.31-.6755,.5642-1.0736,.7515,.5649,.0947,1.0884,.3565,1.5031,.7515,.5886,.5986,.9,1.4161,.8589,2.2547,.0255,.9842-.3193,1.942-.9663,2.6841-.924,.7836-2.1206,1.1696-3.3283,1.0736h-8.0523v-13.0985h.1074Zm19.0035,6.5493c0,2.2547,.9663,3.6504,2.8988,3.6504,1.7178,0,2.8988-1.2884,2.8988-3.7578-.0118-.5785-.0838-1.1542-.2147-1.7178-.3451-1.1227-1.4031-1.8722-2.5767-1.8252-1.6105-.1074-3.0062,.9663-3.0062,3.6504m9.8775-.1074c0,3.3283-1.9326,7.0861-7.0861,7.0861-5.3682,0-6.9787-3.9725-6.9787-6.9787-.0297-3.8839,3.0948-7.0564,6.9787-7.0861,3.8839-.0297,7.0564,3.0948,7.0861,6.9787m8.3744-2.6841l-1.3957,4.6167h2.7915l-1.3957-4.6167h0Zm-2.362-3.7578h4.724l4.9388,13.0985h-4.5093l-.5368-1.8252h-4.6167l-.5368,1.8252h-4.5093l5.0461-13.0985h0Zm15.7826,2.7915v3.1136h1.7178c.6442,0,2.0399,0,2.0399-1.5031s-1.2884-1.5031-2.0399-1.5031h-1.7178v-.1074Zm-4.1872-2.7915h6.5492c1.0908-.054,2.1824,.0915,3.2209,.4295,2.0785,1.1425,2.8373,3.7537,1.6948,5.8322-.1179,.2144-.2539,.4184-.4065,.6097-.4815,.4624-1.0726,.7949-1.7178,.9663l3.2209,5.2609h-4.6167l-2.5767-4.6167h-1.181v4.6167h-4.1872v-13.0985h.0001Zm19.5403,3.1135v7.0861h1.6105c.6401,.053,1.2704-.1833,1.7178-.6442,.6825-.8063,1.0285-1.8443,.9663-2.8988,.0161-.6588-.0932-1.3146-.3221-1.9326-.5368-1.5031-1.6105-1.5031-2.4694-1.6105h-1.5031Zm-4.1872-3.1136h4.5093c2.8988,0,4.8314,.1074,6.3345,1.5031,1.3012,1.3442,1.9654,3.1806,1.8252,5.0461,0,2.7915-1.0736,5.3682-3.6504,6.2271-1.1595,.2765-2.3527,.385-3.543,.3221h-5.4756v-13.0985h0Zm15.1384,.0001h4.1872v13.0985h-4.1872v-13.0985Zm8.0523,0h4.4019l3.0062,4.9388c.6007,1.0405,1.1385,2.1161,1.6105,3.2209-.1074-1.2884-.1074-1.6105-.2147-3.0062v-5.1535h3.8651v13.0985h-4.4019l-2.6841-4.5093c-.7515-1.2884-.9663-1.7178-1.8252-3.4357,.0894,.8917,.1252,1.7881,.1074,2.6841v5.3682h-3.8651v-13.2058h-.0001Zm25.6601,12.2396c-1.1356,.8755-2.5392,1.3308-3.9725,1.2884-.8408-.0099-1.6746-.1549-2.4694-.4295-2.5199-1.0714-4.1053-3.5995-3.9725-6.3345,0-3.7578,2.4694-7.1934,6.9787-7.1934,1.9361-.0516,3.8185,.6399,5.2609,1.9326,.5709,.5796,1.0103,1.2754,1.2884,2.0399l-3.7578,1.0736c-.08-.4845-.3046-.9336-.6442-1.2884-.5309-.4667-1.2279-.699-1.9326-.6442-.7575-.0626-1.5041,.2124-2.0399,.7515-.7818,.8395-1.1719,1.9706-1.0736,3.1136-.0508,1.0858,.2924,2.1534,.9663,3.0062,.5964,.592,1.4155,.904,2.2547,.8589,.7233,.0452,1.4298-.2296,1.9326-.7515,.2847-.3365,.4705-.7453,.5368-1.181h-2.4694v-2.6841h6.0124v7.3008h-3.1135v-.8589h.2146Z"/></svg>